<svg xmlns="http://www.w3.org/2000/svg" xmlns:svg="http://www.w3.org/2000/svg" version="1.1">
    <path d="m24.62,768c-11.5,0 -11.5,0 -18.06,-6.63c-6.09,-6.15 -6.56,-6.94 -6.56,-11.04c0,-4.41 0,-4.41 7.75,-4.12c7.17,0.27 7.77,0.46 8.07,2.54c0.23,1.66 1.03,2.28 3,2.37c2.65,0.12 2.64,0.12 -0.32,0.77c-3,0.64 -3,0.64 0,1.81c1.65,0.64 4.01,1.45 5.25,1.8c1.32,0.37 2.25,0.2 2.25,-0.43c0,-0.59 -0.46,-1.07 -1.02,-1.07c-0.56,0 -1.57,-1.24 -2.23,-2.75c-0.66,-1.51 -2,-3.48 -2.98,-4.37c-0.97,-0.89 -1.77,-2.14 -1.77,-2.78c0,-0.86 0.53,-0.89 2,-0.1c1.1,0.59 2,1.54 2,2.11c0,0.57 0.64,1.68 1.43,2.46c0.78,0.79 1.73,1.43 2.11,1.43c0.37,0 0.41,-0.67 0.1,-1.5c-0.32,-0.83 -0.03,-1.5 0.65,-1.5c0.68,0 1.78,0.88 2.45,1.95c0.78,1.26 0.86,2.18 0.22,2.57c-0.54,0.34 -0.73,1.04 -0.42,1.55c0.32,0.51 1.68,0.93 3.02,0.93c1.34,0 2.44,0.26 2.44,0.57c0,0.32 -0.64,1.22 -1.43,2c-0.78,0.79 -2.56,1.43 -3.94,1.43c-1.38,0 -2.79,0.45 -3.13,1c-0.34,0.55 0.34,1 1.5,1c1.16,0 1.89,0.37 1.61,0.82c-0.28,0.45 0.37,1.45 1.44,2.22c1.07,0.77 1.95,1.96 1.95,2.65c0,0.69 0.63,1.01 1.4,0.71c0.77,-0.29 1.69,-0.06 2.06,0.53c0.45,0.74 -2.94,1.07 -10.84,1.07zm365.5,-4c-0.4,0 -5.13,-4.72 -10.5,-10.49c-5.36,-5.77 -14.79,-14.54 -20.94,-19.47c-8.37,-6.72 -16.34,-11.79 -31.68,-20.15c-11.27,-6.15 -23.65,-13.08 -27.5,-15.4c-3.85,-2.33 -8.9,-5.19 -11.23,-6.37c-2.33,-1.18 -9.75,-4.19 -16.5,-6.7c-6.75,-2.51 -18.8,-7.52 -26.77,-11.13c-7.97,-3.61 -21.7,-10.07 -30.5,-14.36c-13.34,-6.5 -18.84,-9.92 -33.11,-20.61c-9.41,-7.05 -21.32,-15.74 -26.47,-19.32c-5.15,-3.58 -13.9,-11 -19.44,-16.5c-8.85,-8.79 -10.64,-11.17 -14.76,-19.67c-2.57,-5.31 -5.58,-11.93 -6.67,-14.7c-1.09,-2.78 -4.03,-9.11 -6.52,-14.07c-2.49,-4.96 -4.53,-9.27 -4.53,-9.58c0,-0.3 1.01,-0.02 2.25,0.64c1.24,0.65 5.4,3.56 9.25,6.45c3.85,2.9 10.67,9.02 15.16,13.6c4.49,4.58 11.51,12.38 15.6,17.33c4.1,4.95 10.33,11.73 13.84,15.07c3.52,3.34 10,8.49 14.4,11.45c4.4,2.97 13.14,8.45 19.42,12.18c6.28,3.74 11.61,6.6 11.85,6.37c0.23,-0.24 -0.4,-1.83 -1.41,-3.54c-1.54,-2.61 -1.61,-3.26 -0.45,-3.98c1.03,-0.63 -0.03,-1.58 -4.01,-3.58c-2.97,-1.49 -9,-5.05 -13.4,-7.91c-4.4,-2.86 -12.05,-8.61 -17,-12.79c-4.95,-4.18 -11.93,-11.05 -15.5,-15.27c-3.57,-4.23 -9.65,-12.08 -13.5,-17.46c-3.85,-5.38 -8.04,-11.18 -9.32,-12.91c-1.27,-1.72 -1.82,-3.13 -1.22,-3.13c0.61,0 2.72,0.68 4.7,1.5c3.59,1.5 3.59,1.5 2.99,-1.25c-0.33,-1.51 -0.89,-3.76 -1.24,-5c-0.43,-1.49 -0.21,-2.25 0.63,-2.25c0.7,0 7.42,6.02 14.94,13.38c7.53,7.36 17.27,16.04 21.65,19.29c4.39,3.25 10.2,7.21 12.92,8.81c2.72,1.59 10.57,6.93 17.45,11.85c6.88,4.93 15.31,11.18 18.75,13.9c3.8,3.01 6.25,4.38 6.25,3.51c0,-0.79 -1.35,-3.31 -3.01,-5.59c-1.65,-2.28 -2.56,-4.15 -2.03,-4.15c0.54,0 4.15,2.06 8.04,4.57c3.88,2.51 9.81,6.9 13.16,9.75c3.36,2.85 8.86,7.37 12.23,10.04c3.36,2.67 8.76,6.2 12,7.83c4.17,2.11 6.1,2.64 6.61,1.82c0.49,-0.81 4.51,0.68 13.11,4.86c10.44,5.07 15.56,6.81 32.52,11.03c12.63,3.14 23.43,5.23 29,5.59c4.88,0.33 11.12,0.23 13.87,-0.21c3.4,-0.55 5,-1.28 5,-2.29c0,-0.9 -1.98,-2.15 -5,-3.15c-2.75,-0.91 -11.75,-2.85 -20,-4.31c-8.25,-1.45 -21.36,-4.17 -29.13,-6.03c-7.78,-1.86 -16.87,-4.5 -20.22,-5.86c-3.35,-1.36 -11.16,-5.53 -17.37,-9.26c-6.2,-3.74 -18.93,-12 -28.28,-18.36c-9.35,-6.37 -21.72,-14.23 -27.5,-17.47c-5.78,-3.24 -15.22,-9.02 -21,-12.84c-5.78,-3.82 -15.82,-11.24 -22.32,-16.5c-6.5,-5.25 -13.4,-11.39 -15.34,-13.63c-1.93,-2.25 -4.38,-5.75 -5.43,-7.79c-1.05,-2.04 -1.91,-4.41 -1.91,-5.26c0,-1.13 1.41,-0.56 5.25,2.1c2.89,2 5.99,4.28 6.9,5.07c0.91,0.79 1.88,1.05 2.17,0.59c0.28,-0.45 -0.34,-4.42 -1.4,-8.81c-1.05,-4.39 -1.91,-10.09 -1.91,-12.67c-0.01,-3.48 0.59,-5.4 2.3,-7.39c2.31,-2.68 2.31,-2.68 3.52,2.73c0.91,4.04 2.84,7.55 7.63,13.88c3.53,4.66 8.87,11.17 11.87,14.47c3,3.3 5.8,5.67 6.22,5.26c0.42,-0.41 0.02,-2.62 -0.88,-4.93c-0.91,-2.3 -1.45,-4.38 -1.22,-4.62c0.24,-0.24 3.05,1.62 6.24,4.14c3.2,2.51 8.51,7.77 11.81,11.69c3.3,3.92 8.7,9.24 12,11.83c3.3,2.59 8.47,6.37 11.5,8.39c3.03,2.02 8.09,4.81 11.25,6.19c3.87,1.7 5.75,2.12 5.75,1.29c-0.01,-0.68 -1.02,-2.43 -2.25,-3.87c-1.24,-1.45 -7.81,-6.38 -14.6,-10.95c-10.1,-6.79 -13.64,-9.86 -19.42,-16.86c-3.89,-4.71 -9.21,-11.83 -11.83,-15.83c-2.62,-4 -5.28,-8.86 -5.93,-10.82c-0.64,-1.95 -0.97,-3.74 -0.73,-3.98c0.24,-0.24 1.96,0.32 3.83,1.26c1.87,0.93 9.47,7.23 16.9,14c7.42,6.77 13.89,12.31 14.37,12.31c0.48,0 0.58,-1.24 0.21,-2.75c-0.37,-1.51 -1.73,-4.33 -3.02,-6.25c-1.3,-1.92 -6.72,-8.45 -12.06,-14.5c-5.33,-6.05 -11.21,-13.23 -13.05,-15.94c-1.85,-2.72 -3.19,-5.12 -2.98,-5.33c0.21,-0.21 4.36,2.85 9.22,6.8c4.86,3.95 11.13,9.69 13.92,12.76c2.79,3.06 5.32,5.15 5.61,4.64c0.29,-0.51 -0.28,-5.14 -1.28,-10.28c-1.17,-5.99 -3.49,-12.99 -6.46,-19.5c-2.56,-5.58 -5.77,-13.53 -7.14,-17.65c-2.05,-6.16 -2.41,-8.84 -2.03,-15c0.25,-4.12 1.08,-8.85 1.83,-10.5c1.34,-2.92 1.38,-2.81 1.68,4c0.17,3.85 0.69,7.38 1.16,7.85c0.46,0.46 1.17,-1.11 1.57,-3.5c0.4,-2.39 2.05,-8.11 3.67,-12.7c1.61,-4.59 7.54,-17.41 13.17,-28.5c7.76,-15.27 10.77,-22.33 12.42,-29.15c1.2,-4.95 3.11,-14.85 4.23,-22c1.13,-7.15 3.18,-17.5 4.58,-23c1.39,-5.5 2.56,-12.82 2.61,-16.27c0.05,-3.46 -0.2,-6.57 -0.56,-6.92c-0.35,-0.35 -0.84,-0.44 -1.09,-0.19c-0.25,0.25 -0.86,3.36 -1.36,6.92c-0.72,5.09 -0.88,2.29 -0.8,-13.2c0.06,-10.81 -0.22,-19.99 -0.63,-20.41c-0.41,-0.41 -1.7,0.11 -2.86,1.16c-1.16,1.05 -2.94,3.48 -3.96,5.41c-1.85,3.5 -1.85,3.5 -1.9,-3.69c-0.02,-3.96 -0.47,-7.46 -1,-7.79c-0.53,-0.33 -2.09,1.62 -3.46,4.33c-1.4,2.76 -3.23,9.25 -4.17,14.79c-0.92,5.42 -2.04,10.76 -2.48,11.86c-0.55,1.36 -0.82,0.09 -0.87,-3.95c-0.05,-4.66 -0.32,-5.69 -1.27,-4.74c-0.67,0.67 -2.66,5.6 -4.43,10.95c-3.21,9.74 -3.21,9.74 -3.35,4.24c-0.07,-3.02 -0.44,-7.29 -0.83,-9.48c-0.67,-3.75 -0.91,-3.18 -4.11,9.5c-1.87,7.41 -4.94,17.98 -6.83,23.48c-1.89,5.5 -5.59,14.56 -8.21,20.13c-2.63,5.57 -6.8,13.22 -9.28,17c-2.48,3.78 -6.87,9.48 -9.75,12.67c-2.88,3.18 -5.44,5.59 -5.68,5.35c-0.25,-0.24 1.38,-4.08 3.62,-8.52c2.23,-4.45 4.06,-9.15 4.06,-10.46c0,-1.73 -1.7,-3.7 -6.25,-7.24c-3.44,-2.68 -11.87,-9.55 -18.75,-15.27c-6.88,-5.71 -18.15,-15.48 -25.05,-21.7c-6.9,-6.22 -16.66,-15.96 -21.68,-21.63c-5.01,-5.68 -11.09,-13.03 -13.5,-16.33c-2.41,-3.3 -6.49,-9.09 -9.08,-12.87c-2.58,-3.77 -4.69,-7.18 -4.69,-7.58c0,-0.39 7.54,-0.71 16.75,-0.72c9.21,0 19.68,-0.56 23.25,-1.24c3.57,-0.67 15.5,-3.43 26.5,-6.12c11,-2.7 36.51,-10.29 56.7,-16.88c20.18,-6.59 43.13,-13.58 51,-15.53c7.86,-1.94 20.37,-4.64 27.8,-5.98c7.43,-1.35 19.57,-3.14 27,-3.98c7.43,-0.84 19.12,-1.82 26,-2.18c7.11,-0.37 18.32,-0.15 26,0.51c7.43,0.63 19.35,2.03 26.5,3.12c7.15,1.08 22.23,3.75 33.5,5.94c11.27,2.18 29.05,5.1 39.5,6.5c10.45,1.39 28.23,3.86 39.5,5.48c11.27,1.62 26.58,3.64 34,4.47c7.42,0.84 21.83,2.22 32,3.07c10.17,0.85 26.6,1.8 36.5,2.13c15.79,0.51 19.22,0.33 27.92,-1.49c5.45,-1.13 10.3,-1.82 10.77,-1.53c0.48,0.29 -0.99,2.86 -3.25,5.7c-2.26,2.85 -8.93,10.13 -14.83,16.18c-5.89,6.05 -15,16.18 -20.24,22.5c-5.25,6.32 -12.28,15.32 -15.64,20c-3.35,4.68 -7.81,10.79 -9.91,13.58c-2.1,2.8 -7.98,10.58 -13.06,17.3c-5.09,6.73 -9.47,13.21 -9.73,14.42c-0.27,1.21 -0.61,3.77 -0.76,5.68c-0.27,3.48 -0.27,3.48 -3.57,-2.72c-1.81,-3.42 -4.12,-8.58 -5.14,-11.48c-1.02,-2.91 -3.06,-7.87 -4.53,-11.03c-1.47,-3.16 -2.91,-5.75 -3.2,-5.75c-0.29,0 -0.26,2.81 0.06,6.25c0.58,6.25 0.58,6.25 -1.97,0.99c-1.41,-2.89 -3.91,-10.77 -5.56,-17.5c-1.64,-6.73 -3.41,-12.67 -3.93,-13.19c-0.58,-0.59 -0.95,1.11 -0.99,4.5c-0.06,5.45 -0.06,5.45 -2.34,0.44c-1.25,-2.76 -3.51,-8.72 -5.02,-13.24c-1.5,-4.53 -3.15,-8.49 -3.66,-8.8c-0.54,-0.33 -0.96,3.93 -1.01,10.24c-0.09,10.81 -0.09,10.81 -2.87,0.31c-1.53,-5.77 -3.25,-11.64 -3.81,-13.04c-0.56,-1.4 -1.69,-3.1 -2.51,-3.78c-1.23,-1.02 -1.59,-0.84 -2.06,1.06c-0.32,1.26 -0.36,5.21 -0.09,8.77c0.26,3.57 1.19,11.2 2.05,16.96c0.87,5.76 2.42,13.18 3.46,16.5c1.04,3.32 1.87,6.26 1.85,6.53c-0.03,0.27 -1.11,-1.75 -2.41,-4.5c-2.35,-5 -2.35,-5 -2.43,4.5c-0.04,5.23 0.57,13.77 1.37,19c0.79,5.23 2.31,11.98 3.37,15c1.06,3.02 2.76,7.3 3.78,9.5c1.02,2.2 6.07,11.65 11.24,21c5.16,9.35 9.78,17.43 10.26,17.95c0.55,0.59 0.89,0.5 0.89,-0.25c0,-0.66 0.56,-1.2 1.25,-1.2c0.69,0 2.68,2.14 4.44,4.75c1.75,2.61 3.86,7 4.7,9.75c0.83,2.75 1.71,5.9 1.95,7c0.23,1.1 0.48,0.14 0.54,-2.12c0.07,-2.27 -0.53,-5.98 -1.33,-8.23c-0.79,-2.26 -3.2,-6.7 -5.34,-9.88c-2.14,-3.17 -6.23,-9.67 -9.09,-14.43c-2.85,-4.76 -6.74,-12.61 -8.63,-17.44c-1.9,-4.83 -3.3,-8.92 -3.12,-9.1c0.18,-0.19 2.76,2.85 5.73,6.75c2.97,3.9 9.39,12.57 14.27,19.27c4.88,6.7 10.58,15.67 12.66,19.94c2.31,4.72 4.25,10.61 4.96,15c0.65,3.98 1.4,8.36 1.67,9.74c0.48,2.38 0.57,2.41 1.88,0.61c0.76,-1.03 1.7,-3.96 2.08,-6.5c0.45,-2.94 0.08,-8.36 -1.03,-14.95c-0.95,-5.69 -1.53,-10.55 -1.29,-10.8c0.25,-0.24 1.64,0.96 3.08,2.69c1.45,1.72 3.77,5.06 5.16,7.42c1.38,2.37 3.17,7.39 3.96,11.17c1.1,5.22 1.21,8.35 0.46,13.08c-0.55,3.43 -1.46,7.48 -2.03,9c-0.57,1.53 -2.91,5.9 -5.21,9.71c-2.29,3.8 -5.25,8.01 -6.58,9.34c-2.31,2.31 -2.38,2.75 -1.57,10.07c0.47,4.21 0.86,10.7 0.86,14.41c0,3.71 0.4,6.75 0.89,6.75c0.48,0 2.17,-1.38 3.75,-3.07c1.58,-1.69 3.16,-4.64 3.52,-6.56c0.36,-1.91 0.4,-5.03 0.09,-6.93c-0.35,-2.16 -0.15,-3.44 0.54,-3.44c0.6,0 2.8,1.8 4.89,4c2.1,2.2 4.34,5.78 4.99,7.95c1.08,3.58 0.94,4.46 -1.5,9.44c-1.79,3.65 -5.29,7.92 -10.4,12.7c-4.23,3.96 -11.97,10.43 -17.2,14.38c-5.23,3.95 -12.96,9.5 -17.18,12.34c-4.23,2.84 -8.01,5.68 -8.4,6.33c-0.54,0.86 0.43,0.98 3.68,0.47c2.42,-0.38 8.45,-2.99 13.4,-5.81c4.95,-2.82 14.31,-8.26 20.81,-12.07c6.5,-3.82 12.02,-6.73 12.28,-6.48c0.26,0.26 -0.01,1.73 -0.6,3.27c-0.69,1.82 -0.72,3.15 -0.09,3.78c0.62,0.62 2.67,-0.28 5.78,-2.57c2.65,-1.94 7.56,-6.39 10.92,-9.89c3.35,-3.49 6.84,-7.79 7.75,-9.54c0.91,-1.76 1.65,-4.24 1.64,-5.5c0,-1.27 -0.65,-3.54 -1.44,-5.05c-0.79,-1.51 -0.99,-2.75 -0.45,-2.75c0.54,0 3.17,2.04 5.84,4.54c2.8,2.62 5.81,6.73 7.13,9.75c1.81,4.11 2.31,7.12 2.36,14.29c0.07,8.47 -0.13,9.38 -2.85,13.31c-1.61,2.32 -5.21,6.04 -8,8.27c-2.79,2.23 -7.56,5.3 -10.58,6.83c-3.02,1.53 -12.48,5.59 -21,9.03c-8.52,3.43 -18.2,7.59 -21.5,9.24c-3.3,1.65 -7.24,3.87 -8.75,4.93c-1.51,1.07 -2.75,2.42 -2.75,2.99c0,0.65 1.31,0.8 3.46,0.39c1.9,-0.35 7.57,-2.47 12.6,-4.7c6.1,-2.71 10.03,-3.9 11.79,-3.56c1.88,0.36 4.39,-0.54 8.65,-3.09c3.3,-1.99 14.66,-9.13 25.24,-15.89c10.58,-6.76 25.21,-15.62 32.5,-19.69c7.29,-4.07 16.55,-8.58 20.57,-10.02c4.02,-1.44 7.73,-2.62 8.25,-2.62c0.52,0 0.94,0.63 0.94,1.41c0,0.77 -1.35,4.41 -3,8.09c-1.65,3.68 -4.63,11.93 -6.63,18.34c-1.99,6.42 -5.43,15.49 -7.64,20.16c-3.87,8.19 -4.86,9.34 -27.62,31.77c-16.2,15.96 -26.24,25.02 -31.99,28.87c-4.62,3.08 -13.83,8.31 -20.47,11.62c-6.65,3.3 -16.83,7.78 -22.62,9.94c-5.79,2.16 -17.73,6.19 -26.53,8.96c-8.8,2.76 -25.68,8.86 -37.5,13.54c-11.82,4.69 -27.35,11.46 -34.5,15.05c-7.15,3.59 -17.05,9.22 -22,12.52c-4.95,3.29 -11.74,8.16 -15.08,10.81c-3.35,2.65 -10.39,9.31 -15.66,14.8c-5.27,5.49 -9.88,10.92 -10.24,12.05c-0.36,1.14 -0.99,2.07 -1.4,2.07zm-4.16,-70.31c0.96,-0.13 1.5,-1.51 1.59,-4.03c0.11,-3.19 -0.27,-3.98 -2.27,-4.74c-1.32,-0.51 -5.46,-1.2 -9.2,-1.55c-4.56,-0.42 -7.03,-0.26 -7.49,0.48c-0.4,0.65 0.7,1.97 2.61,3.13c1.82,1.11 4.54,2.01 6.05,2.02c1.8,0 2.75,0.53 2.75,1.53c0,0.84 1.01,1.95 2.25,2.45c1.24,0.5 2.91,0.83 3.71,0.71zm50.62,-6.77c0.05,0.04 2.75,-0.79 6.01,-1.86c3.25,-1.07 10.19,-2.9 15.41,-4.06c5.23,-1.16 10.84,-2.78 12.49,-3.6c1.9,-0.95 3.11,-1.11 3.33,-0.44c0.19,0.57 1.12,1.04 2.06,1.04c0.94,0 6.86,-2.07 13.16,-4.59c6.3,-2.53 16.48,-6.98 22.61,-9.89c6.13,-2.91 13.25,-6.73 15.82,-8.5c2.57,-1.77 4.46,-3.43 4.19,-3.69c-0.26,-0.26 -5.58,1.54 -11.82,4c-6.23,2.47 -20.79,7.63 -32.34,11.49c-11.55,3.85 -28.31,9.32 -37.25,12.15c-8.94,2.84 -16.25,5.54 -16.25,6.01c0,0.47 0.56,1.08 1.25,1.36c0.69,0.28 1.29,0.54 1.33,0.58zm-36.72,-6.33c0.56,-0.35 1.77,-4.11 2.69,-8.36c0.92,-4.25 3.65,-15.97 6.06,-26.05c2.4,-10.07 7.06,-27.62 10.35,-39c3.29,-11.37 6.7,-23.82 7.58,-27.65c0.88,-3.83 1.96,-7.59 2.39,-8.36c0.54,-0.97 0.99,-0.37 1.47,1.97c0.52,2.55 0.9,3 1.56,1.85c0.48,-0.83 2.26,-7.41 3.95,-14.63c1.7,-7.21 3.1,-14.18 3.12,-15.49c0.03,-2.3 0.08,-2.31 1.5,-0.43c0.81,1.07 1.47,3.54 1.47,5.49c0,1.95 -2.43,10.75 -5.4,19.56c-2.96,8.81 -6.15,19.5 -7.07,23.77c-0.92,4.27 -1.51,8.55 -1.32,9.5c0.19,0.96 2.07,-2.99 4.18,-8.76c2.11,-5.77 7.43,-20.17 11.83,-31.99c4.41,-11.82 9.98,-26 12.4,-31.51c2.41,-5.52 7.48,-15.65 11.26,-22.52c3.78,-6.86 9.4,-16.98 12.49,-22.48c3.08,-5.5 5.61,-10.39 5.62,-10.87c0.01,-0.48 -0.72,-0.27 -1.62,0.48c-0.89,0.74 -4.2,5.18 -7.35,9.87c-3.15,4.69 -8.08,12.71 -10.97,17.82c-2.88,5.12 -8.14,15.92 -11.69,24c-3.55,8.09 -7.11,15.36 -7.91,16.16c-1.27,1.29 -1.45,0.66 -1.46,-5c0,-3.55 -0.25,-9.61 -0.55,-13.46c-0.53,-6.79 -0.5,-6.92 1.05,-4.22c0.88,1.53 2.03,2.51 2.56,2.19c0.52,-0.32 0.94,-1.57 0.94,-2.78c-0.01,-1.2 -0.93,-5.1 -2.04,-8.65c-1.12,-3.56 -2.76,-7.27 -3.64,-8.25c-0.89,-0.99 -2.46,-1.79 -3.5,-1.79c-1.03,0 -2.13,0.68 -2.45,1.5c-0.31,0.82 -1.54,1.51 -2.72,1.53c-1.18,0.02 -3.01,0.69 -4.08,1.5c-1.07,0.81 -2.82,1.47 -3.9,1.47c-1.07,0 -4.12,-2.02 -6.76,-4.5c-4.81,-4.5 -4.81,-4.5 -18.61,-4.5c-8.42,0 -16.6,0.59 -21.01,1.51c-3.97,0.83 -8.37,2.03 -9.77,2.67c-1.93,0.88 -2.85,0.88 -3.71,0.02c-0.87,-0.87 -0.74,-1.61 0.52,-3.01c0.93,-1.01 1.68,-2.37 1.68,-3c0,-0.64 -2.59,-2.45 -5.75,-4.03c-4.14,-2.07 -7.89,-3.05 -13.37,-3.49c-4.2,-0.34 -8.87,-1.1 -10.39,-1.67c-2.2,-0.84 -3.13,-0.73 -4.54,0.55c-0.97,0.88 -2.06,2.75 -2.41,4.16c-0.65,2.56 -0.65,2.56 -3.43,-0.1c-2.77,-2.66 -2.77,-2.66 -5.37,-0.62c-1.43,1.13 -2.8,1.7 -3.05,1.28c-0.25,-0.42 -0.73,-2.12 -1.06,-3.77c-0.39,-1.96 0.06,-4.39 1.3,-7c1.05,-2.2 1.94,-3.44 1.99,-2.75c0.04,0.69 0.52,1.25 1.07,1.25c0.54,0 2.37,-2.75 4.06,-6.1c2.73,-5.41 3.22,-5.91 4.34,-4.38c0.84,1.15 1.95,1.51 3.34,1.07c1.14,-0.36 3.24,-1.83 4.67,-3.26c1.43,-1.43 2.6,-2.1 2.6,-1.49c0,0.62 1.08,1.39 2.41,1.73c1.32,0.33 3.46,0.01 4.75,-0.72c1.29,-0.73 3.91,-1.4 5.84,-1.5c1.93,-0.09 5.52,-0.64 8,-1.21c2.48,-0.57 6.9,-1.58 9.84,-2.24c4.08,-0.92 6.52,-0.93 10.33,-0.05c2.74,0.63 6.09,1.15 7.45,1.15c1.35,0 4.21,-0.89 6.34,-1.98c3.72,-1.9 4.07,-1.91 8.41,-0.3c4.33,1.6 4.63,1.59 6.6,-0.2c2.03,-1.83 2.13,-1.82 5.01,0.31c1.62,1.19 3.53,2.17 4.26,2.17c0.72,0 2.35,-0.73 3.62,-1.61c2.18,-1.53 2.44,-1.47 5.15,1.12c2.29,2.19 3.52,2.64 6.17,2.23c1.83,-0.27 4.08,-0.1 5.01,0.38c0.99,0.52 1.92,0.51 2.25,-0.02c0.31,-0.5 1.82,0.29 3.36,1.75c1.55,1.46 4.25,4.76 6,7.33c1.76,2.57 3.2,5.75 3.2,7.05c0,1.3 0.54,2.91 1.2,3.57c0.66,0.66 1.99,1.2 2.96,1.2c0.98,0 2.3,-0.99 2.95,-2.21c0.65,-1.21 1.21,-5.18 1.24,-8.81c0.06,-6.13 -0.28,-7.2 -4.82,-15.04c-2.68,-4.64 -7.91,-12.49 -11.6,-17.44c-3.7,-4.95 -7.68,-10.91 -8.85,-13.25c-1.17,-2.34 -1.9,-4.25 -1.63,-4.25c0.27,0 4.63,4.84 9.68,10.75c5.06,5.91 9.84,11.13 10.63,11.6c0.84,0.51 1.86,0.43 2.48,-0.19c0.73,-0.73 0.75,-3.31 0.08,-8.25c-0.73,-5.43 -0.63,-8.93 0.43,-14.3c0.77,-3.91 1.61,-8.91 1.87,-11.11c0.45,-3.85 0.41,-3.93 -1.21,-2c-1.49,1.78 -1.61,1.8 -1.04,0.16c0.35,-1 0.91,-4.21 1.25,-7.11c0.34,-2.91 0.16,-6.8 -0.41,-8.67c-0.57,-1.86 -1.34,-5.18 -1.71,-7.38c-0.55,-3.23 -1.95,-5.21 -7.34,-10.31c-3.66,-3.47 -10.26,-9.34 -14.66,-13.05c-4.4,-3.71 -9.11,-7.51 -10.47,-8.44c-1.36,-0.94 -3.02,-1.7 -3.68,-1.7c-0.67,0 -1.35,1.01 -1.53,2.25c-0.28,1.95 -0.95,1.46 -5.18,-3.75c-2.67,-3.3 -5.99,-6.61 -7.37,-7.34c-2.1,-1.13 -2.73,-1.13 -3.84,0c-0.76,0.76 -1.42,3.93 -1.53,7.34c-0.1,3.3 -0.07,10.83 0.08,16.74c0.27,10.74 0.27,10.74 5.66,13.37c2.97,1.45 6.5,3.95 7.85,5.56c1.35,1.61 2.95,4.81 3.55,7.13c0.6,2.31 1.51,5.58 2.02,7.27c0.52,1.69 0.94,5.26 0.94,7.94c0,2.88 -0.85,6.61 -2.09,9.17c-1.15,2.37 -4.37,6.23 -7.16,8.57c-2.79,2.34 -7.07,6.27 -9.52,8.75c-2.44,2.48 -5.25,6.07 -6.25,8c-0.99,1.93 -3.34,4.98 -5.22,6.78c-2.24,2.15 -3.99,3.07 -5.07,2.66c-0.9,-0.35 -3.23,-2.84 -5.16,-5.54c-1.94,-2.69 -3.96,-4.9 -4.48,-4.9c-0.52,0 -1.37,0.75 -1.88,1.67c-0.76,1.34 -1.59,0.33 -4.31,-5.25c-3.09,-6.35 -3.87,-7.19 -9.52,-10.18c-4.56,-2.41 -6.8,-4.36 -8.62,-7.5c-1.35,-2.33 -3.06,-5.93 -3.79,-7.99c-0.73,-2.06 -1.88,-3.75 -2.54,-3.75c-0.67,0 -2.36,1.36 -3.76,3.03c-1.4,1.67 -5.11,7.63 -8.23,13.25c-3.12,5.62 -8.65,14.63 -12.29,20.03c-3.64,5.39 -7.2,10.91 -7.91,12.25c-0.72,1.34 -1.73,2.44 -2.25,2.44c-0.52,0 -0.95,-0.45 -0.95,-1c0,-0.55 1.55,-3.16 3.45,-5.8c1.9,-2.64 8.83,-15.8 15.41,-29.25c10.69,-21.87 12.66,-25.22 18.63,-31.7c3.69,-4.01 7.5,-7.25 8.53,-7.25c1.02,0 2.12,0.42 2.43,0.92c0.32,0.51 -1.3,3.09 -3.59,5.74c-2.28,2.64 -4.76,6.26 -5.51,8.04c-0.74,1.78 -1.35,4.35 -1.35,5.71c0,1.43 0.94,3.14 2.22,4.03c1.22,0.86 3.71,1.56 5.53,1.56c1.82,0 5.88,1.31 9.03,2.9c3.15,1.6 8.39,4.53 11.66,6.5c3.27,1.98 6.77,3.6 7.78,3.6c1.02,0 4.19,-1.19 7.06,-2.64c2.87,-1.45 6.43,-3.81 7.91,-5.25c1.48,-1.43 5.68,-3.67 9.32,-4.97c4.94,-1.77 6.86,-2.99 7.56,-4.82c0.51,-1.35 0.93,-3.56 0.93,-4.92c0,-1.37 -0.87,-4.18 -1.93,-6.26c-1.06,-2.07 -2.61,-4.34 -3.45,-5.04c-0.84,-0.7 -2.44,-0.98 -3.57,-0.62c-1.15,0.37 -2.29,1.83 -2.61,3.34c-0.31,1.47 -1.2,4.14 -1.98,5.93c-0.79,1.79 -1.84,3.25 -2.34,3.25c-0.5,0 -1.18,-0.71 -1.51,-1.58c-0.34,-0.87 -0.61,-5.58 -0.61,-10.45c0,-4.88 -0.43,-9.91 -0.94,-11.17c-0.52,-1.27 -1.43,-11.3 -2.02,-22.3c-0.59,-11 -1.57,-22.48 -2.18,-25.5c-0.61,-3.02 -1.52,-6.4 -2.04,-7.5c-0.51,-1.1 -2.66,-4.02 -4.78,-6.49c-3.86,-4.49 -3.86,-4.49 -9.95,1.66c-5.82,5.88 -6.09,6.36 -6.09,11.15c0,2.76 -0.85,6.99 -1.88,9.4c-1.04,2.42 -3.1,5.2 -4.6,6.17c-1.62,1.06 -3.63,1.55 -4.99,1.21c-1.51,-0.38 -3.27,0.18 -5.16,1.64c-1.58,1.22 -5.67,4.57 -9.09,7.46c-3.43,2.88 -8.02,6.15 -10.21,7.27c-2.2,1.11 -4.56,2.03 -5.26,2.03c-0.69,0 2.08,-3.36 6.16,-7.47c4.08,-4.11 7.13,-7.77 6.76,-8.13c-0.36,-0.36 -3.94,0.56 -7.94,2.04c-4.01,1.49 -9.49,3.12 -12.17,3.63c-2.68,0.51 -8.12,0.98 -12.07,1.04c-5.88,0.08 -8.12,-0.37 -12.27,-2.47c-2.79,-1.41 -7.85,-4.99 -11.24,-7.95c-3.4,-2.96 -7.1,-6.92 -8.23,-8.79c-1.14,-1.87 -2.57,-3.73 -3.19,-4.13c-0.61,-0.41 -1.68,-0.75 -2.37,-0.75c-0.69,-0.01 -1.25,0.73 -1.25,1.65c0,0.92 -0.62,2.38 -1.38,3.25c-0.75,0.87 -3,4.69 -5,8.48c-1.99,3.8 -3.62,7.4 -3.62,8c0.01,0.61 1.35,3.12 2.98,5.6c1.63,2.48 5.29,6.83 8.13,9.69c2.84,2.85 6.56,5.74 8.28,6.43c1.71,0.69 6.14,3.84 9.84,7c6.74,5.75 6.74,5.75 12.5,2.85c3.17,-1.6 7.53,-3.21 9.67,-3.58c3.52,-0.6 3.85,-0.48 3.33,1.22c-0.31,1.04 -1.72,4.59 -3.13,7.89c-1.4,3.3 -2.56,7.52 -2.58,9.38c-0.01,1.9 -1.36,5.72 -3.08,8.73c-2.49,4.35 -3.25,7.18 -4.06,15.1c-0.55,5.36 -1.13,9.88 -1.3,10.04c-0.16,0.17 -0.58,-2.12 -0.93,-5.08c-0.35,-2.96 -1.59,-7.54 -2.76,-10.19c-1.43,-3.22 -5.58,-8.27 -12.56,-15.26c-5.73,-5.75 -10.65,-10.23 -10.94,-9.95c-0.28,0.28 0.67,8.55 2.12,18.36c1.44,9.82 3.94,24.76 5.55,33.2c1.62,8.44 2.94,16.05 2.94,16.91c0,1.33 -0.32,1.28 -2.08,-0.31c-1.14,-1.03 -2.81,-3.13 -3.71,-4.65c-0.9,-1.53 -2.28,-2.78 -3.05,-2.78c-1.09,0 -1.31,1.13 -0.93,4.99c0.33,3.54 1.54,6.6 4.13,10.5c2.02,3.03 5.8,7.92 8.4,10.85c2.61,2.94 6.47,7.45 8.57,10.04c2.56,3.13 4.39,4.54 5.5,4.21c1.13,-0.32 2.84,1.05 5.26,4.21c1.98,2.59 4.78,6.74 6.22,9.24c1.45,2.5 6,13.26 10.12,23.91c4.11,10.65 8,19.85 8.64,20.46c0.87,0.82 1,-0.88 0.53,-6.91c-0.63,-8 -0.63,-8 5.97,5c4.07,8.03 7.55,16.6 9.11,22.42c1.38,5.18 3.86,12.94 5.5,17.24c1.65,4.31 3.47,8.12 4.05,8.48c0.73,0.45 0.87,-0.89 0.44,-4.24c-0.34,-2.69 -0.92,-9.85 -1.28,-15.9c-0.37,-6.05 -0.42,-10.77 -0.12,-10.5c0.3,0.27 2.79,7.02 5.54,15c2.74,7.98 6.61,18.92 8.59,24.31c1.99,5.4 5.45,16.2 7.7,24c2.25,7.81 4.5,14.62 4.99,15.14c0.55,0.57 0.91,-5.29 0.91,-14.62c0,-8.57 0.31,-17.1 0.69,-18.95c0.67,-3.26 0.71,-3.29 1.4,-0.88c0.39,1.38 0.78,12.85 0.87,25.5c0.08,12.65 0.53,24.8 0.98,27c0.46,2.2 0.88,3.62 0.95,3.16c0.06,-0.47 0.99,-5.19 2.06,-10.5c1.08,-5.31 2.43,-13.49 3.01,-18.16c0.58,-4.67 1.52,-19.3 2.1,-32.5c0.58,-13.2 1.44,-24.39 1.91,-24.87c0.49,-0.49 1.17,1.11 1.55,3.67c0.38,2.5 0.19,13.25 -0.42,23.87c-0.6,10.63 -1.74,26.75 -2.52,35.83c-0.78,9.08 -1.71,20.26 -2.08,24.86c-0.44,5.55 -0.32,8.14 0.36,7.73zm-104.11,-2.64c0.69,0.03 1.25,-0.14 1.25,-0.36c0,-0.23 -3.44,-2.27 -7.64,-4.54c-4.21,-2.27 -8.13,-3.96 -8.72,-3.76c-0.59,0.19 -0.08,1.22 1.14,2.28c1.22,1.06 4.58,2.92 7.47,4.13c2.89,1.22 5.81,2.23 6.5,2.25zm160.82,-17.95c0.33,0 3.67,-1.35 7.43,-3c3.76,-1.65 7.28,-3 7.83,-3c0.55,0 1.16,0.47 1.35,1.05c0.22,0.66 1.95,0.79 4.72,0.35c3.61,-0.58 5.78,-2.01 12.55,-8.3c4.51,-4.18 10.86,-9.77 14.12,-12.43c3.26,-2.66 9.01,-7.82 12.76,-11.47c3.76,-3.65 6.35,-6.81 5.75,-7.01c-0.6,-0.2 -4.86,1.67 -9.46,4.16c-4.6,2.49 -14.16,8.11 -21.24,12.5c-7.09,4.39 -17.15,10.73 -22.38,14.09c-5.66,3.63 -10.41,7.51 -11.76,9.58c-1.24,1.91 -1.99,3.48 -1.67,3.48zm-6.82,-31.02c1.51,0 6.13,-1.06 10.25,-2.35c4.12,-1.28 10.43,-3.81 14,-5.61c3.57,-1.8 8.98,-4.9 12,-6.89c3.02,-1.99 9.21,-7.17 13.75,-11.51c4.54,-4.34 8.25,-8.51 8.25,-9.27c0,-1.14 -0.65,-1.11 -3.75,0.18c-2.06,0.85 -9.13,4.52 -15.7,8.15c-6.57,3.63 -17.19,10.27 -23.6,14.77c-6.41,4.5 -13.07,8.77 -14.8,9.49c-1.73,0.72 -3.15,1.7 -3.15,2.18c0,0.48 1.24,0.87 2.75,0.86zm-114.53,-1.61c0.44,-0.28 0.46,-1.08 0.04,-1.78c-0.42,-0.7 -3.05,-3.26 -5.85,-5.68c-2.8,-2.43 -9.22,-7.94 -14.27,-12.26c-5.05,-4.32 -9.67,-8.77 -10.27,-9.9c-0.97,-1.81 -0.86,-1.97 1.02,-1.4c1.16,0.36 3.01,0.93 4.11,1.27c1.13,0.34 2,0.15 2,-0.45c0,-0.58 -0.94,-2.66 -2.1,-4.61c-1.15,-1.96 -1.87,-3.56 -1.59,-3.56c0.27,0 3.26,1.56 6.64,3.47c3.37,1.91 9.38,5.71 13.34,8.45c3.97,2.74 9.4,5.94 12.07,7.12c2.67,1.18 5.23,1.77 5.68,1.3c0.46,-0.46 -0.75,-2.97 -2.69,-5.57c-2.41,-3.25 -6.25,-6.37 -12.18,-9.93c-4.77,-2.86 -12.02,-7.44 -16.11,-10.18c-4.09,-2.73 -11.29,-7.94 -16,-11.56c-4.71,-3.62 -15.66,-13.73 -24.34,-22.48c-8.68,-8.74 -16.05,-15.62 -16.39,-15.28c-0.34,0.34 3.29,8.59 8.07,18.33c4.78,9.73 10.66,20.46 13.07,23.83c2.4,3.37 8.57,11.06 13.7,17.07c5.13,6.02 12.48,13.88 16.33,17.48c3.85,3.59 9.14,8 11.75,9.79c2.62,1.79 6.65,4.11 8.96,5.14c2.31,1.04 4.56,1.66 5.01,1.39zm288.36,-19.94c1.6,-0.38 4.46,-1.84 6.35,-3.25c1.89,-1.41 2.94,-2.72 2.33,-2.93c-0.61,-0.2 -2.86,0.53 -5,1.62c-2.14,1.09 -4.5,2.72 -5.25,3.62c-1.22,1.47 -1.06,1.56 1.57,0.94zm-168.92,-5.43c0.6,0 2.88,-0.63 5.07,-1.41c2.19,-0.77 8.03,-3.9 12.98,-6.96c4.94,-3.06 12.59,-9.07 17,-13.35c4.4,-4.28 8.8,-9.03 9.78,-10.56c0.98,-1.53 1.57,-2.99 1.31,-3.25c-0.26,-0.26 -10.33,7 -22.38,16.13c-12.06,9.13 -22.58,17.23 -23.38,18c-0.82,0.78 -0.99,1.4 -0.38,1.4zm10.04,-21.52c2.04,-0.85 5.98,-3.27 8.75,-5.36c2.78,-2.1 8.37,-7.1 12.42,-11.12c4.05,-4.01 8.66,-9.34 10.24,-11.83c1.58,-2.49 2.66,-4.73 2.4,-4.99c-0.25,-0.26 -4.8,3.69 -10.11,8.76c-5.31,5.08 -13.65,12.63 -18.53,16.78c-4.88,4.15 -8.87,7.94 -8.87,8.43c0,0.48 1.67,0.18 3.7,-0.67zm-150.45,-18.53c0.41,0.03 0.75,-0.15 0.75,-0.4c0,-0.25 -1.99,-1.82 -4.43,-3.5c-2.43,-1.67 -5.15,-3.77 -6.04,-4.67c-0.9,-0.89 -1.45,-1.79 -1.24,-2c0.21,-0.22 1.7,0.03 3.3,0.53c1.6,0.51 4.15,1.2 5.66,1.53c1.88,0.41 2.74,0.19 2.73,-0.67c-0.01,-0.7 -4.4,-4.56 -9.75,-8.59c-5.35,-4.03 -15.88,-13.14 -23.4,-20.25c-7.51,-7.11 -13.93,-12.93 -14.25,-12.93c-0.32,0 -0.58,1.11 -0.58,2.46c0,1.35 1.92,6.19 4.27,10.75c2.35,4.56 6.24,10.89 8.64,14.06c2.4,3.18 7.12,7.94 10.48,10.57c3.36,2.64 7.83,5.84 9.92,7.1c2.1,1.27 5.93,3.13 8.5,4.13c2.58,1.01 5.03,1.86 5.44,1.88zm151.45,-5.95c0.59,0 3.79,-1.81 7.11,-4.03c3.32,-2.22 7.48,-5.68 9.24,-7.68c1.76,-2 3.84,-5.18 4.63,-7.06c0.78,-1.88 1.26,-3.92 1.05,-4.54c-0.21,-0.62 -1.24,-0.03 -2.3,1.32c-1.06,1.34 -6.18,6.84 -11.37,12.22c-5.19,5.37 -8.95,9.77 -8.36,9.77zm165.87,0c-0.41,0 -0.37,-1.91 0.09,-4.25c0.46,-2.34 0.83,-6.63 0.84,-9.53c0,-5.28 0,-5.28 2.81,-2c1.55,1.8 3.46,4.73 4.25,6.5c0.79,1.77 1.44,3.44 1.44,3.71c0,0.27 -1.95,1.63 -4.34,3.03c-2.38,1.4 -4.67,2.54 -5.09,2.54zm-103.87,-8.37c0.25,-0.24 0.58,-4.73 0.75,-9.96c0.23,-7.27 0.81,-10.58 2.47,-14c1.19,-2.46 4.31,-6.43 6.94,-8.82c2.62,-2.39 6.76,-5.97 9.2,-7.94c2.44,-1.98 5.08,-4.79 5.86,-6.25c0.78,-1.46 1.14,-2.93 0.8,-3.27c-0.34,-0.34 -2.73,0.56 -5.32,2.01c-2.59,1.45 -4.81,2.51 -4.94,2.36c-0.13,-0.14 2.11,-4.13 4.97,-8.85c2.86,-4.73 6.41,-12.25 7.89,-16.72c1.47,-4.46 2.65,-9.37 2.6,-10.91c-0.06,-2.4 -0.3,-2.17 -1.75,1.77c-0.92,2.51 -3.09,7.01 -4.83,10c-1.74,3 -5.23,8.38 -7.75,11.95c-2.52,3.57 -7.23,10.39 -10.45,15.15c-3.97,5.85 -6.44,10.78 -7.65,15.25c-1.35,4.98 -1.64,8.5 -1.18,14.35c0.34,4.26 0.92,9.23 1.28,11.03c0.37,1.81 0.87,3.09 1.11,2.85zm12.82,-5.63c0.29,0 2.2,-1.07 4.25,-2.37c2.05,-1.3 4.59,-3.33 5.63,-4.5c1.05,-1.17 1.43,-2.13 0.84,-2.13c-0.58,0 -3.35,1.81 -6.15,4.02c-2.8,2.22 -5.09,4.24 -5.09,4.5c0,0.27 0.23,0.48 0.52,0.48zm-68.6,-7.94c1.61,-1.15 4.1,-3.49 5.55,-5.21c1.44,-1.71 3.54,-4.9 4.65,-7.08c1.11,-2.18 1.75,-4.23 1.43,-4.56c-0.33,-0.32 -1.36,0.51 -2.3,1.85c-0.94,1.34 -3.09,4.02 -4.79,5.94c-1.69,1.92 -4.06,4.8 -5.27,6.38c-1.2,1.59 -2.19,3.31 -2.19,3.82c0,0.52 1.31,0 2.92,-1.14zm-169.23,-5.06c0.72,0 1.29,-0.34 1.28,-0.75c-0.02,-0.41 -2.16,-3.3 -4.75,-6.41c-2.6,-3.11 -8.06,-9.52 -12.15,-14.25c-4.08,-4.72 -7.79,-8.59 -8.25,-8.59c-0.45,0 -0.82,1.01 -0.82,2.25c0,1.24 1.3,4.95 2.89,8.25c1.6,3.3 4.18,7.45 5.75,9.23c1.57,1.78 5.53,4.81 8.8,6.75c3.27,1.94 6.53,3.52 7.25,3.52zm-73.91,-10.83c-0.22,0.66 -1.21,0.13 -2.35,-1.26c-1.08,-1.33 -5.33,-5.36 -9.44,-8.97c-4.12,-3.61 -9.69,-8.22 -12.38,-10.25c-2.7,-2.03 -5.55,-3.69 -6.35,-3.69c-0.79,0 -2.59,0.9 -3.99,2c-1.4,1.1 -2.94,2 -3.42,2c-0.49,0 -0.62,-1.08 -0.28,-2.4c0.38,-1.52 0.09,-2.72 -0.78,-3.25c-0.77,-0.47 -3.44,-3.55 -5.95,-6.85c-2.5,-3.3 -5.46,-7.8 -6.57,-10c-1.11,-2.2 -3.09,-7.15 -4.39,-11c-2.38,-7 -2.38,-7 -2.69,-2.71c-0.17,2.36 0.39,6.7 1.25,9.65c0.86,2.95 1.56,5.72 1.56,6.15c0,0.43 -1.39,-0.54 -3.09,-2.15c-1.7,-1.62 -4.29,-4.96 -5.75,-7.44c-2.12,-3.59 -2.65,-5.72 -2.59,-10.51c0.05,-4.71 0.8,-7.49 3.43,-12.84c1.85,-3.75 4.7,-8.25 6.33,-9.99c1.88,-2 3.14,-2.7 3.41,-1.91c0.23,0.68 -0.38,3.61 -1.37,6.5c-0.99,2.89 -1.77,7.95 -1.74,11.25c0.03,4.21 0.77,7.49 2.46,11c2.41,5 2.41,5 2.66,0.5c0.13,-2.48 0.73,-7.2 1.33,-10.5c0.61,-3.3 2.45,-8.55 4.1,-11.66c1.65,-3.12 4.09,-6.68 5.41,-7.92c1.32,-1.25 2.59,-2.07 2.82,-1.84c0.23,0.23 0.07,2.33 -0.36,4.67c-0.43,2.34 -0.56,7.4 -0.28,11.25c0.27,3.85 0.84,7 1.25,7c0.42,0 1.06,-1.63 1.44,-3.63c0.37,-1.99 1.71,-5.93 2.97,-8.75c1.25,-2.82 4.46,-8 7.13,-11.52c2.66,-3.52 5,-5.91 5.2,-5.31c0.21,0.61 -0.16,2.08 -0.8,3.28c-0.64,1.2 -2.26,5.39 -3.59,9.31c-1.34,3.91 -2.7,10.32 -3.03,14.23c-0.34,3.91 -0.3,9.2 0.09,11.75c0.38,2.55 1.11,4.64 1.63,4.64c0.52,0 0.94,-1.1 0.94,-2.45c0,-1.35 0.49,-4.72 1.08,-7.5c0.6,-2.78 1.43,-5.05 1.86,-5.05c0.42,0 1.06,3.06 1.4,6.8c0.35,3.74 1.55,9.58 2.67,12.98c1.11,3.4 5.33,13.28 9.37,21.95c4.04,8.67 7.89,17.46 8.56,19.53c0.67,2.07 1.05,4.27 0.84,4.91zm200.72,-25.17c1.92,-0.43 5.73,-2.22 8.46,-3.97c3.19,-2.05 5.65,-2.97 6.88,-2.58c1.05,0.33 3.18,1.69 4.73,3.02c1.54,1.33 3.24,2.15 3.76,1.83c0.53,-0.33 -0.12,-1.16 -1.44,-1.85c-1.31,-0.7 -3.42,-2.65 -4.67,-4.36c-1.51,-2.04 -3.14,-3.09 -4.82,-3.09c-1.39,0 -3.51,0.51 -4.72,1.13c-1.2,0.62 -4.32,2.74 -6.93,4.71c-2.61,1.96 -4.75,4.11 -4.75,4.76c0,0.84 1.02,0.96 3.5,0.4zm-17,-8.64c1.1,-0.13 4.25,-0.75 7,-1.37c2.75,-0.62 7.14,-1.81 9.75,-2.64c2.61,-0.83 4.75,-1.91 4.75,-2.4c0,-0.48 -0.79,-1.29 -1.75,-1.79c-0.96,-0.5 -7.15,-1.91 -13.75,-3.13c-11.36,-2.09 -12.43,-2.13 -20,-0.71c-6.13,1.15 -9.4,1.26 -14,0.49c-3.3,-0.55 -10.27,-0.73 -15.5,-0.4c-5.23,0.33 -14.45,1.84 -20.5,3.35c-10.33,2.57 -11,2.89 -11,5.24c0,2.5 0,2.5 36.5,3.05c20.07,0.3 37.4,0.44 38.5,0.31zm174.35,-2.36c-0.47,0 -0.85,-0.25 -0.85,-0.55c0,-0.3 0.74,-1.98 1.64,-3.73c0.91,-1.74 2.24,-5.66 2.97,-8.7c0.72,-3.03 1.33,-8.29 1.35,-11.66c0.02,-3.53 -0.86,-9.07 -2.08,-13c-1.16,-3.78 -3.66,-10.01 -5.55,-13.86c-3.44,-7 -3.44,-7 1.06,-2c2.47,2.75 6.43,8.03 8.8,11.72c2.37,3.7 4.65,6.74 5.06,6.75c0.41,0.02 0.75,-1.42 0.75,-3.2c0,-3.23 0,-3.23 2.69,0.72c1.77,2.6 2.82,5.67 3.08,8.98c0.36,4.53 -0.01,5.66 -3.74,11.4c-2.27,3.5 -6.43,8.79 -9.23,11.75c-2.8,2.96 -5.47,5.38 -5.95,5.38zm-118.45,-15.92c0.94,-0.78 2.4,-3.03 3.24,-5c0.85,-1.97 2.39,-8.08 3.43,-13.58c1.04,-5.5 2.58,-12.46 3.41,-15.47c0.88,-3.17 1.52,-9.57 1.52,-15.25c0,-5.38 -0.42,-9.78 -0.93,-9.78c-0.51,0 -1.86,1.19 -3,2.64c-1.14,1.45 -2.99,5.6 -4.11,9.23c-1.39,4.51 -2.34,11.65 -3,22.61c-0.52,8.81 -1.25,18.27 -1.61,21.02c-0.62,4.64 -0.54,4.9 1.05,3.58zm11.07,-14.08c0.8,0 3.26,-2.38 5.45,-5.28c2.2,-2.91 5.16,-7.84 6.59,-10.97c1.7,-3.7 2.93,-8.74 3.53,-14.47c0.51,-4.83 0.93,-10.72 0.94,-13.09c0.01,-2.43 -0.39,-4.06 -0.92,-3.73c-0.51,0.32 -2.32,2.99 -4,5.94c-1.69,2.95 -3.99,9.12 -5.12,13.73c-1.12,4.6 -2.78,10.39 -3.67,12.87c-0.9,2.48 -2.23,5.39 -2.95,6.47c-0.73,1.09 -1.32,3.45 -1.32,5.25c0,2.22 0.48,3.28 1.47,3.28zm58.55,-12c0.49,0 0.29,-1.72 -0.45,-3.82c-0.75,-2.09 -3.56,-8.51 -6.26,-14.25c-2.7,-5.73 -7.35,-17.52 -10.33,-26.18c-2.98,-8.66 -5.77,-15.75 -6.2,-15.75c-0.43,0 -0.78,2.18 -0.78,4.84c0,2.66 0.89,8.3 1.97,12.53c1.08,4.24 3.7,11.39 5.83,15.91c2.12,4.52 6.44,12.38 9.59,17.47c3.15,5.09 6.13,9.25 6.63,9.25zm-69.23,-58c3.49,0 7.21,-0.47 8.28,-1.04c1.06,-0.56 1.93,-1.63 1.93,-2.36c0,-0.75 1.52,-1.59 3.45,-1.9c1.9,-0.31 6.15,-2.39 9.46,-4.64c3.3,-2.24 7.37,-6.06 9.04,-8.49c1.67,-2.43 3.52,-5.69 4.11,-7.23c0.59,-1.55 0.8,-4.3 0.46,-6.1c-0.34,-1.81 -1.99,-4.85 -3.67,-6.76c-1.68,-1.91 -3.5,-3.48 -4.04,-3.48c-0.53,0 -2.9,1.57 -5.24,3.5c-2.35,1.93 -5.13,3.5 -6.17,3.51c-1.05,0 -4.58,2.3 -7.85,5.1c-3.27,2.8 -6.87,5.44 -8,5.87c-1.13,0.42 -4.75,1.08 -8.05,1.45c-4.82,0.54 -7.96,0.15 -16,-1.98c-5.5,-1.45 -11.12,-2.87 -12.5,-3.14c-2.02,-0.39 -1.26,0.7 4,5.74c3.57,3.43 9.43,8.99 13,12.36c3.57,3.37 7.61,6.91 8.97,7.86c1.71,1.2 4.43,1.73 8.82,1.73zm-265.15,-17.37c0.85,-1.58 2.41,-5.36 3.46,-8.41c1.04,-3.04 1.9,-6.61 1.9,-7.94c0,-1.32 -0.44,-2.13 -0.97,-1.8c-0.53,0.33 -2.11,4.21 -3.5,8.61c-1.39,4.41 -2.51,9 -2.49,10.21c0.04,1.99 0.19,1.93 1.6,-0.67zm121.92,-25.05c4.99,-0.22 10.65,-1.06 12.58,-1.87c2.28,-0.95 3.98,-2.58 4.83,-4.63c1,-2.41 1.04,-3.76 0.19,-5.63c-0.61,-1.35 -1.54,-2.45 -2.07,-2.45c-0.52,0 -1.85,1.15 -2.96,2.56c-1.11,1.41 -3.28,3.54 -4.82,4.74c-2.81,2.18 -2.81,2.18 -0.06,-1.14c1.51,-1.82 2.75,-4.53 2.75,-6.01c0,-1.49 -0.7,-3.71 -1.56,-4.93c-0.85,-1.22 -2.2,-2.22 -3,-2.22c-0.79,0 -1.49,0.56 -1.54,1.25c-0.06,0.69 -0.03,2.66 0.07,4.39c0.12,2.23 -0.72,4.14 -2.88,6.6c-1.67,1.91 -2.75,3.76 -2.4,4.12c0.35,0.35 -0.68,0.64 -2.3,0.64c-1.62,0 -3.95,-0.7 -5.17,-1.56c-1.23,-0.86 -2.9,-2.86 -3.73,-4.45c-0.82,-1.59 -1.49,-3.77 -1.49,-4.85c0,-1.08 1.38,-3.13 3.08,-4.55c1.69,-1.42 3.97,-2.59 5.07,-2.59c1.35,0 1.89,-0.56 1.67,-1.71c-0.19,-0.95 -1.76,-2.13 -3.51,-2.63c-1.74,-0.5 -4.79,-0.61 -6.76,-0.24c-1.98,0.38 -5.16,2.05 -7.07,3.73c-1.91,1.68 -3.48,3.93 -3.48,4.99c0,1.06 0.68,3.56 1.52,5.57c1.51,3.61 1.51,3.63 -0.47,1.83c-1.1,-0.99 -2.28,-2.68 -2.62,-3.74c-0.58,-1.85 -0.71,-1.86 -2.52,-0.22c-1.05,0.95 -1.91,2.46 -1.91,3.35c0,0.89 0.7,2.63 1.56,3.85c0.86,1.23 2.94,2.94 4.62,3.81c1.68,0.87 5.82,2.21 9.19,2.98c3.8,0.87 9.58,1.25 15.19,1.01zm127.01,0.33c3.89,0.05 9.51,-0.63 12.49,-1.52c3.8,-1.13 6.73,-2.91 9.76,-5.95c2.49,-2.48 4.2,-5.07 4.01,-6.03c-0.18,-0.93 -1.18,-2.19 -2.21,-2.8c-1.47,-0.87 -1.99,-0.79 -2.41,0.39c-0.29,0.82 -2.15,3 -4.12,4.83c-1.97,1.84 -5.26,4.2 -7.3,5.25c-2.04,1.06 -4.88,1.92 -6.31,1.92c-1.43,0 -4.35,-1.41 -6.48,-3.12c-2.14,-1.72 -4.36,-4.49 -4.95,-6.15c-0.58,-1.67 -1.05,-3.19 -1.05,-3.38c0,-0.19 0.6,-0.35 1.33,-0.35c0.72,0 2.36,-1.1 3.62,-2.45c1.33,-1.41 2.05,-3.11 1.71,-4c-0.33,-0.85 -1.77,-1.55 -3.2,-1.55c-1.43,0 -4.54,1.33 -6.91,2.97c-2.37,1.63 -4.59,3.69 -4.93,4.58c-0.34,0.89 -0.62,3 -0.62,4.7c0,1.7 0.75,3.92 1.66,4.93c1.59,1.75 1.52,1.81 -1.38,1.23c-1.67,-0.34 -4.04,-0.07 -5.27,0.58c-1.27,0.69 -1.85,1.57 -1.35,2.07c0.49,0.49 4.47,1.53 8.86,2.32c4.39,0.79 11.16,1.48 15.05,1.53zm4.13,-5.91c0.79,0 2.41,-0.51 3.62,-1.12c1.2,-0.62 3.19,-2.05 4.41,-3.16c1.23,-1.12 2.51,-3.5 2.85,-5.27c0.33,-1.78 0.1,-4.18 -0.52,-5.33c-0.61,-1.16 -2.43,-2.78 -4.04,-3.61c-1.61,-0.83 -4.04,-1.51 -5.41,-1.51c-1.37,0 -2.75,0.41 -3.06,0.92c-0.31,0.51 0.14,1.63 1.01,2.5c0.87,0.87 2.23,1.58 3.01,1.58c0.79,0 1.43,0.83 1.43,1.85c0,1.01 -0.89,2.65 -1.98,3.63c-1.56,1.41 -2.95,1.66 -6.5,1.18c-2.49,-0.34 -4.52,-0.23 -4.52,0.24c0,0.47 1.86,2.49 4.13,4.48c2.27,1.99 4.78,3.62 5.57,3.62zm-135.67,-3.04c0.84,0.02 2.53,-0.66 3.75,-1.52c1.22,-0.85 2.22,-2.61 2.22,-3.89c0,-2.02 -0.59,-2.4 -4.25,-2.79c-2.34,-0.24 -4.82,0 -5.52,0.54c-0.74,0.57 -1,1.84 -0.63,3.01c0.35,1.12 1.15,2.62 1.77,3.33c0.62,0.7 1.82,1.3 2.66,1.32zm274.34,-6.96c0.76,0 3.13,-1.91 5.27,-4.25c2.14,-2.34 7.59,-8.75 12.11,-14.25c4.51,-5.5 10.91,-13.15 14.21,-17c3.3,-3.85 6.01,-7.57 6.02,-8.28c0.02,-0.98 -0.6,-0.94 -2.73,0.19c-1.51,0.81 -5.08,3.41 -7.94,5.78c-2.85,2.37 -7.71,7.23 -10.8,10.8c-3.09,3.56 -8.29,10.39 -11.56,15.17c-3.27,4.77 -5.95,9.39 -5.95,10.26c0,0.87 0.62,1.58 1.37,1.58zm-202.92,-14c0.85,0 1.6,-0.79 1.67,-1.75c0.06,-0.96 0.22,-2.2 0.34,-2.75c0.13,-0.55 0.32,-2.57 0.43,-4.5c0.2,-3.5 0.2,-3.5 2.09,0.08c1.05,1.98 3.47,4.79 5.39,6.25c1.92,1.47 3.92,2.67 4.43,2.67c0.51,0 2.06,-0.89 3.43,-1.97c1.38,-1.08 2.81,-1.66 3.18,-1.29c0.37,0.37 0.93,-0.33 1.25,-1.55c0.44,-1.69 0.9,-1.97 1.87,-1.16c0.92,0.76 1.48,0.76 1.95,0c0.37,-0.59 3,-2.79 5.84,-4.89c2.85,-2.1 6.25,-4.38 7.55,-5.08c1.49,-0.79 2.12,-0.85 1.69,-0.16c-0.44,0.71 0.44,1.1 2.48,1.1c2.31,0 5.3,-1.61 11.12,-6c4.38,-3.3 8.37,-6 8.88,-6c0.5,0 0.64,1.35 0.31,3c-0.44,2.18 -0.22,3 0.79,3c0.76,0 3.07,-0.9 5.12,-2c2.05,-1.1 4.81,-2 6.13,-2c1.32,0 2.66,-0.68 2.97,-1.5c0.32,-0.82 1.28,-1.5 2.14,-1.5c0.86,0 3.89,-1.17 6.72,-2.61c4.38,-2.22 5.65,-2.46 8.47,-1.59c1.82,0.56 3.31,0.67 3.31,0.26c0,-0.41 -0.93,-1.59 -2.07,-2.62c-1.95,-1.76 -1.96,-1.91 -0.25,-2.55c1.42,-0.53 0.49,-1.31 -4.18,-3.53c-5.15,-2.45 -7.21,-2.86 -14.5,-2.84c-6.91,0 -10.3,0.61 -18.12,3.24c-5.3,1.78 -10.15,3.24 -10.78,3.24c-0.73,0 -0.56,-0.9 0.49,-2.49c1.5,-2.3 1.5,-2.54 -0.01,-3.12c-0.9,-0.34 -6.01,0.39 -11.36,1.62c-5.34,1.24 -10.28,2.46 -10.97,2.73c-0.69,0.26 -1.25,-0.03 -1.25,-0.65c0,-0.62 2.04,-2.57 4.53,-4.33c3.74,-2.63 4.22,-3.31 2.75,-3.84c-0.98,-0.35 -7.63,-1.15 -14.78,-1.76c-7.15,-0.61 -21.1,-1.62 -31,-2.24c-9.9,-0.62 -25.65,-0.95 -35,-0.73c-9.35,0.22 -22.62,1.21 -29.5,2.2c-6.88,0.99 -13.62,2.24 -15,2.79c-2.49,1 -2.49,1 -0.27,2.8c2.22,1.8 2.22,1.8 -0.01,2.4c-1.22,0.32 -4.02,0.61 -6.22,0.63c-2.2,0.02 -5.95,0.92 -8.34,2c-2.38,1.08 -4.16,2.5 -3.94,3.16c0.22,0.65 1.05,1.49 1.84,1.85c0.79,0.37 2.45,1.19 3.68,1.82c1.23,0.64 3.98,1.16 6.12,1.16c2.24,0 4.42,0.64 5.14,1.5c0.68,0.82 1.96,1.5 2.83,1.5c0.88,0 5.4,1.91 10.05,4.25c5.84,2.93 8.58,3.86 8.87,3c0.23,-0.69 1.13,-1.25 2,-1.25c0.88,0 2.3,0.63 3.17,1.39c0.87,0.76 5.01,3.24 9.21,5.5c4.19,2.26 8.72,4.11 10.05,4.11c1.33,0 2.95,0.53 3.6,1.18c0.65,0.65 1.45,0.92 1.77,0.6c0.33,-0.32 -0.37,-2.47 -1.55,-4.78c-1.18,-2.31 -1.97,-4.36 -1.76,-4.57c0.2,-0.21 1.85,1.19 3.65,3.1c1.8,1.91 3.8,3.47 4.44,3.47c0.65,0 3.33,2 5.96,4.45c2.72,2.54 5.39,4.23 6.18,3.92c0.77,-0.29 2.31,-2.38 3.43,-4.63c1.72,-3.48 2.13,-3.81 2.71,-2.17c0.38,1.06 1.29,3.43 2.02,5.26c0.92,2.29 1.88,3.22 3.1,3c1.17,-0.22 2.48,-2.44 3.87,-6.6c1.15,-3.44 2.33,-6.5 2.62,-6.78c0.29,-0.29 1.06,1.59 1.71,4.18c0.65,2.59 1.81,6.2 2.58,8.04c0.76,1.83 2.09,3.33 2.94,3.33zm-111.36,-8.06c0.32,0.03 1.08,-1.01 1.68,-2.33c0.79,-1.75 2.17,-2.55 5.16,-3c2.24,-0.33 5.87,-0.88 8.07,-1.22c2.2,-0.33 4,-0.81 4,-1.06c0,-0.25 -0.5,-1.39 -1.1,-2.52c-0.85,-1.58 -0.79,-2.26 0.23,-2.89c0.99,-0.61 0.81,-0.82 -0.64,-0.79c-1.1,0.02 -3.59,-0.26 -5.54,-0.64c-2.96,-0.57 -4.3,-0.18 -8,2.32c-2.45,1.65 -5.46,4.38 -6.7,6.06c-1.24,1.68 -2.25,3.31 -2.25,3.62c0,0.32 1.01,0.98 2.25,1.48c1.24,0.5 2.52,0.93 2.84,0.97zm216.26,-2.96c0.47,-0.43 0.24,-2.07 -0.5,-3.63c-0.77,-1.63 -3.34,-3.9 -5.98,-5.29c-4.19,-2.22 -5.01,-2.34 -8.65,-1.24c-2.21,0.66 -5.08,2.09 -6.37,3.17c-2.02,1.69 -2.14,2.12 -0.85,3.03c0.82,0.59 3.34,0.89 5.58,0.66c2.66,-0.26 6.16,0.39 10,1.85c3.26,1.23 6.3,1.89 6.77,1.45zm20.15,-51.25c-11,0 -26.3,-0.38 -34,-0.85c-7.7,-0.47 -19.62,-1.8 -26.5,-2.96c-6.88,-1.16 -16.6,-3.18 -21.62,-4.48c-5.01,-1.3 -15.81,-4.81 -24,-7.8c-8.18,-2.99 -14.88,-5.82 -14.88,-6.29c0,-0.47 0.9,-0.94 2,-1.05c1.1,-0.1 4.59,-0.47 7.76,-0.82c3.17,-0.34 5.53,-1.01 5.24,-1.49c-0.3,-0.47 -2.89,-1.53 -5.77,-2.35c-2.88,-0.82 -9.78,-2.19 -15.35,-3.06c-5.56,-0.87 -12.99,-1.56 -16.5,-1.55c-3.51,0.02 -9.76,0.67 -13.88,1.44c-4.12,0.77 -17.85,3.26 -30.5,5.53c-12.65,2.28 -29.98,5.95 -38.5,8.15c-8.52,2.21 -20.41,4.88 -26.41,5.94c-6,1.06 -11.09,1.74 -11.31,1.53c-0.22,-0.22 0.87,-1.29 2.41,-2.38c1.55,-1.09 5.59,-3.38 8.99,-5.09c3.39,-1.71 6.48,-3.6 6.85,-4.19c0.37,-0.6 0.45,-1.31 0.19,-1.58c-0.27,-0.26 -3.58,0.23 -7.35,1.1c-3.78,0.87 -11.82,3.17 -17.87,5.13c-6.05,1.95 -16.56,6.46 -23.37,10.02c-6.8,3.56 -12.5,6.33 -12.67,6.16c-0.17,-0.17 0.47,-3.68 1.43,-7.8c0.97,-4.12 2.27,-8.44 2.89,-9.6c0.63,-1.16 2.75,-3.53 4.72,-5.25c1.97,-1.73 5.9,-4.32 8.74,-5.76c5.16,-2.62 5.16,-2.62 -2.04,4.36c-4.52,4.38 -7.2,7.77 -7.2,9.12c0,1.18 0.49,2.14 1.1,2.14c0.6,0 2.29,-0.82 3.75,-1.83c1.46,-1.01 6.25,-3.75 10.64,-6.09c4.4,-2.34 10.03,-6.16 12.52,-8.49c3.25,-3.04 6.91,-5.09 13.01,-7.3c4.66,-1.68 12.08,-3.78 16.48,-4.65c4.4,-0.88 15.43,-2.53 24.5,-3.68c9.07,-1.15 20.55,-2.49 25.5,-2.97c4.95,-0.49 9.35,-0.54 9.77,-0.12c0.42,0.42 -1.27,2.23 -3.75,4.01c-2.49,1.78 -4.52,3.61 -4.52,4.06c0,0.44 6,0.58 13.34,0.3c7.33,-0.28 15.93,-0.19 19.09,0.21c5.76,0.72 5.76,0.72 3.64,2.98c-2.12,2.26 -2.12,2.26 25.96,2.3c22.82,0.03 27.75,-0.19 26.28,-1.21c-1,-0.69 -8.11,-2.64 -15.81,-4.33c-7.7,-1.69 -19.4,-4.05 -26,-5.26c-6.6,-1.2 -12.65,-2.53 -13.45,-2.96c-1.02,-0.54 -0.28,-1.1 2.5,-1.9c2.17,-0.62 8.68,-1.81 14.45,-2.63c5.77,-0.83 13.39,-1.96 16.91,-2.53c3.53,-0.56 11.63,-1.28 18,-1.59c6.38,-0.31 18.57,-0.07 27.09,0.53c8.52,0.61 20.9,2.04 27.5,3.18c6.6,1.14 15.39,2.94 19.52,3.99c4.14,1.05 10.8,3.26 14.8,4.9c3.99,1.65 8.48,3.96 9.97,5.13c1.49,1.17 3.99,4.17 5.55,6.68c2.84,4.56 2.84,4.56 -0.5,3.88c-1.84,-0.37 -7.14,-1.34 -11.78,-2.15c-4.65,-0.82 -11.62,-1.73 -15.5,-2.03c-4.62,-0.37 -6.54,-0.23 -5.56,0.39c0.82,0.52 6.45,2.19 12.5,3.73c6.05,1.53 14.77,4.26 19.39,6.07c4.61,1.82 10.13,4.45 12.25,5.85c2.12,1.41 3.86,2.96 3.86,3.45c0,0.49 -2.25,1.47 -5,2.18c-2.75,0.7 -5,1.53 -5,1.84c0,0.31 4.34,2.33 9.64,4.49c7.2,2.93 9.16,4.1 7.75,4.62c-1.04,0.38 -10.89,0.68 -21.89,0.68zm8.88,-27.73c-0.79,0 -1.62,-0.56 -1.84,-1.25c-0.21,-0.69 -0.67,-3.36 -1.02,-5.93c-0.34,-2.57 -1.56,-5.87 -2.7,-7.32c-1.15,-1.46 -3.18,-3.06 -4.51,-3.57c-1.34,-0.51 -9.49,-2.47 -18.12,-4.35c-8.63,-1.88 -23.34,-4.57 -32.69,-5.98c-9.35,-1.41 -28.7,-4.23 -43,-6.26c-24.11,-3.44 -27.78,-3.71 -50.5,-3.77c-23.04,-0.07 -24.86,0.06 -30.52,2.18c-3.31,1.24 -16.6,4.01 -29.53,6.17c-12.92,2.16 -28.13,5.11 -33.8,6.54c-5.66,1.44 -13.07,3.66 -16.47,4.94c-3.4,1.28 -11.23,4.64 -17.4,7.47c-6.17,2.82 -11.52,5.13 -11.88,5.13c-0.36,0 -0.34,-2.81 0.04,-6.25c0.39,-3.44 1.51,-8.05 2.51,-10.25c0.99,-2.2 3.45,-5.57 5.46,-7.48c2.9,-2.75 4.26,-5.39 6.51,-12.58c1.56,-5 6.31,-17.83 10.55,-28.52c4.25,-10.68 10.86,-25.82 14.7,-33.63c3.83,-7.82 11.27,-20.64 16.52,-28.5c5.26,-7.86 12.09,-17.21 15.18,-20.78c3.1,-3.57 9.2,-10.22 13.56,-14.79c4.36,-4.57 13.14,-12.25 19.5,-17.08c6.36,-4.82 14.27,-10.39 17.57,-12.37c3.3,-1.97 8.64,-4.76 11.87,-6.18c3.61,-1.59 7.7,-2.59 10.6,-2.59c2.59,0 7.15,0.84 10.12,1.86c2.98,1.02 8.76,3.55 12.86,5.61c4.1,2.07 10.85,6.03 15,8.81c4.15,2.79 8,5.47 8.55,5.96c0.55,0.5 -4.4,-1.82 -11,-5.15c-6.6,-3.32 -13.46,-6.32 -15.25,-6.65c-1.79,-0.33 -3.25,-0.2 -3.25,0.3c0,0.49 1.67,1.69 3.72,2.66c2.04,0.98 8.45,4.95 14.25,8.83c5.79,3.87 13.54,9.49 17.22,12.47c3.68,2.99 9.6,8.51 13.16,12.28c3.56,3.78 8.4,9.49 10.77,12.69c2.37,3.21 6.14,7.86 8.39,10.33c2.24,2.47 6.7,9.45 9.91,15.5c3.21,6.05 7.34,13.25 9.18,16c1.85,2.75 3.48,6.12 3.63,7.5c0.25,2.36 0.03,2.48 -3.98,2.16c-3.06,-0.24 -4.24,0.04 -4.21,1c0.03,0.74 2.84,3.37 6.25,5.84c5.2,3.78 6.81,5.72 9.93,11.95c2.05,4.09 3.56,7.61 3.35,7.81c-0.2,0.2 -2.66,-0.05 -5.47,-0.56c-3.11,-0.56 -5.1,-0.57 -5.1,0c0,0.5 3.73,5.05 8.29,10.11c8.3,9.19 8.3,9.19 12.12,22.69c2.09,7.43 4.47,14.25 5.27,15.16c0.81,0.91 2.61,1.95 4,2.3c1.39,0.34 3.63,1.35 4.98,2.23c1.34,0.89 3.16,3 4.05,4.71c0.88,1.7 2.17,5.24 2.86,7.85c1.06,4.05 1.04,4.75 -0.19,4.75zm-288.79,-14c0.33,0 2.69,-1.84 5.25,-4.08c2.59,-2.28 9.1,-6.08 14.66,-8.58c5.5,-2.47 13.32,-5.82 17.37,-7.45c4.05,-1.63 11.25,-3.89 16,-5.02c7.85,-1.88 10.3,-1.99 27.13,-1.3c10.18,0.42 21.65,0.74 25.5,0.71c5.9,-0.05 10.3,-1.16 28,-7.05c11.55,-3.85 22.89,-7.31 25.19,-7.69c2.31,-0.38 4.58,-1.22 5.05,-1.87c0.47,-0.64 0.68,-3.95 0.47,-7.35c-0.28,-4.59 -0.81,-6.34 -2.05,-6.83c-0.91,-0.36 -7.62,-0.91 -14.91,-1.22c-7.29,-0.31 -13.25,-0.98 -13.25,-1.48c0,-0.49 1.91,-1.73 4.25,-2.75c2.34,-1.01 6.61,-2.15 9.5,-2.54c2.89,-0.38 5.31,-1.21 5.39,-1.84c0.08,-0.64 0.19,-2.25 0.25,-3.58c0.08,-1.82 1.47,-3.22 5.61,-5.66c3.02,-1.78 5.5,-3.84 5.5,-4.58c0,-1.07 -3.39,-1.34 -16.66,-1.34c-9.16,0 -17,-0.34 -17.43,-0.76c-0.42,-0.42 -0.03,-2.31 0.87,-4.19c1.02,-2.16 3.78,-4.81 7.43,-7.15c3.18,-2.04 5.23,-3.91 4.54,-4.14c-0.69,-0.24 -1.25,-1.22 -1.25,-2.18c0,-0.97 -1.12,-2.27 -2.48,-2.89c-2.24,-1.02 -3.16,-0.62 -9.25,4.02c-3.73,2.83 -10.23,7.76 -14.45,10.96c-4.23,3.19 -7.96,6.24 -8.28,6.77c-0.33,0.53 1.1,1.24 3.18,1.58c2.08,0.33 4.66,0.96 5.73,1.38c1.59,0.62 0.04,1.84 -8.4,6.62c-5.69,3.22 -11.7,7 -13.35,8.38c-1.65,1.39 -4.28,4.3 -5.85,6.46c-1.57,2.17 -2.85,4.37 -2.85,4.89c0,0.58 2.67,0.69 6.75,0.28c4.12,-0.41 7.86,-0.26 9.58,0.4c1.56,0.6 2.68,1.54 2.5,2.09c-0.19,0.55 -4.8,3.01 -10.25,5.47c-5.45,2.45 -13.77,5.56 -18.49,6.91c-4.73,1.35 -16.02,4.08 -25.09,6.06c-9.07,1.99 -17.29,3.86 -18.25,4.15c-0.96,0.29 -1.75,0.1 -1.75,-0.42c0,-0.52 2.37,-2.74 5.27,-4.93c2.89,-2.18 12.01,-7.9 20.25,-12.69c8.24,-4.8 16.31,-9.79 17.94,-11.1c1.63,-1.31 2.67,-2.67 2.32,-3.02c-0.35,-0.36 -3.14,0.29 -6.2,1.44c-3.06,1.14 -14.06,6.36 -24.44,11.59c-10.39,5.24 -19.38,9.52 -19.98,9.52c-0.6,0 -0.84,-0.66 -0.53,-1.47c0.31,-0.81 5.36,-5.46 11.22,-10.34c5.86,-4.88 15.13,-12.37 20.62,-16.65c5.48,-4.28 11.46,-8.49 13.3,-9.37c2.72,-1.3 3.7,-1.36 5.32,-0.35c1.1,0.69 2.54,0.93 3.2,0.54c0.67,-0.39 11.72,-7.7 24.57,-16.24c12.85,-8.54 24.71,-16.79 26.36,-18.32c1.64,-1.54 3.42,-2.8 3.94,-2.8c0.53,0 0.68,-0.45 0.34,-1c-0.34,-0.55 -1.45,-1 -2.48,-1c-1.02,0 -2,0.39 -2.19,0.86c-0.18,0.47 -3.98,2.97 -8.43,5.55c-4.46,2.58 -11.29,5.79 -15.18,7.15c-3.89,1.35 -9.13,2.74 -11.65,3.09c-2.6,0.35 -4.57,0.22 -4.57,-0.31c0,-0.51 3.15,-4.51 7.01,-8.89c3.85,-4.37 9.59,-10.33 12.75,-13.25c5.3,-4.9 5.51,-5.25 2.74,-4.62c-1.65,0.38 -6.15,2.12 -10,3.87c-3.85,1.76 -9.7,5.38 -13,8.05c-3.3,2.66 -8.42,7.04 -11.38,9.72c-2.96,2.68 -7.24,5.83 -9.5,6.99c-2.27,1.17 -5.81,2.44 -7.87,2.82c-2.06,0.39 -3.75,0.43 -3.75,0.11c0,-0.33 3.69,-4.31 8.2,-8.84c4.51,-4.53 7.84,-8.59 7.42,-9.02c-0.43,-0.42 -2.99,0.46 -5.7,1.97c-2.71,1.51 -5.15,2.75 -5.42,2.75c-0.28,0 -0.5,-0.41 -0.5,-0.91c0,-0.5 2.81,-3.15 6.25,-5.88c3.44,-2.74 9.35,-7.47 13.14,-10.52c4.76,-3.84 11.33,-7.58 21.31,-12.13c7.94,-3.62 15.95,-7.79 17.8,-9.27c1.85,-1.48 3.19,-2.99 2.96,-3.35c-0.22,-0.36 -2.68,-0.21 -5.46,0.34c-2.78,0.55 -5.32,0.73 -5.65,0.41c-0.32,-0.33 1.05,-2.51 3.05,-4.85c3.64,-4.25 3.64,-4.25 1.39,-5.45c-2.21,-1.18 -2.13,-1.33 3.98,-7.48c3.43,-3.45 6.23,-6.65 6.23,-7.11c0,-0.46 -1.24,-0.55 -2.75,-0.2c-1.51,0.35 -4.06,1.25 -5.65,2.02c-1.6,0.76 -3.1,1.38 -3.34,1.38c-0.24,0 0.73,-1.38 2.15,-3.08c1.42,-1.69 2.59,-3.49 2.59,-4c0,-0.5 -0.24,-0.92 -0.54,-0.92c-0.3,0 -2.42,0.96 -4.72,2.13c-2.3,1.18 -8.69,5.09 -14.21,8.71c-5.52,3.62 -13.41,9.98 -17.53,14.13c-4.12,4.15 -10.8,11.89 -14.83,17.21c-4.03,5.32 -11.16,16.34 -15.85,24.5c-4.69,8.15 -13.67,25.27 -19.97,38.05c-8.32,16.89 -11.86,25.2 -12.96,30.46c-0.82,3.97 -1.25,8.22 -0.94,9.45c0.45,1.81 -0.89,3.53 -7.26,9.31c-5.96,5.41 -8.21,8.2 -9.5,11.82c-0.94,2.6 -1.7,5.97 -1.69,7.48c0,1.51 0.27,2.75 0.59,2.75zm132.47,-44.03c-6.3,-0.02 -8.1,-0.3 -6.81,-1.05c0.96,-0.56 5.68,-1.25 10.5,-1.54c8.06,-0.48 8.6,-0.39 6.81,1.05c-1.43,1.16 -4.18,1.56 -10.5,1.54zm-88.81,-22.04c-2.89,1.12 -5.25,1.63 -5.25,1.13c0,-0.5 1.23,-2.4 2.73,-4.23c1.5,-1.83 3.86,-4.38 5.25,-5.66c1.39,-1.28 4.31,-3.49 6.49,-4.9c2.18,-1.41 8.48,-4.53 13.99,-6.92c5.51,-2.39 10.36,-4.35 10.78,-4.35c0.42,0 0.76,0.86 0.76,1.92c0,1.05 -1.98,3.64 -4.39,5.75c-2.42,2.1 -9.06,6.39 -14.75,9.52c-5.7,3.13 -12.72,6.61 -15.61,7.74zm33.11,-62.93c-0.75,0 -1.36,-0.34 -1.35,-0.75c0,-0.41 1.69,-2.97 3.75,-5.69c2.05,-2.72 6.15,-6.91 9.1,-9.31c2.95,-2.4 5.58,-4.14 5.86,-3.87c0.27,0.28 -0.9,2.89 -2.61,5.81c-1.71,2.92 -3.68,6.04 -4.38,6.93c-0.69,0.89 -3.01,2.81 -5.14,4.25c-2.13,1.45 -4.48,2.63 -5.23,2.63zm-299.61,-56.02c-0.96,0.01 -1.8,-0.77 -1.87,-1.73c-0.06,-0.96 -0.04,-2.14 0.04,-2.63c0.09,-0.48 -0.75,-0.64 -1.88,-0.34c-1.12,0.29 -2.04,0.21 -2.04,-0.19c0,-0.4 -1.91,-0.59 -4.25,-0.41c-2.94,0.21 -3.8,0.02 -2.78,-0.63c0.81,-0.52 1.17,-1.25 0.79,-1.62c-0.37,-0.37 0.21,-2.4 1.28,-4.51c1.08,-2.11 3.19,-4.98 4.7,-6.38c2.7,-2.5 2.97,-2.54 18.25,-2.46c8.53,0.04 14.95,0.3 14.26,0.58c-0.69,0.28 -1.25,1.14 -1.25,1.92c0,0.78 -0.44,1.42 -0.97,1.42c-0.53,0 -0.71,0.68 -0.39,1.5c0.33,0.87 0,1.53 -0.78,1.57c-0.75,0.04 -0.46,0.46 0.64,0.93c1.77,0.76 1.69,0.87 -0.75,0.93c-1.75,0.04 -2.75,0.62 -2.75,1.57c0,0.82 -0.64,1.5 -1.42,1.5c-0.78,0 -1.68,-0.56 -2,-1.25c-0.46,-1 -0.7,-1 -1.16,0c-0.32,0.69 -1.26,1.25 -2.07,1.25c-0.82,0 -2.14,0.64 -2.92,1.43c-0.79,0.78 -1.43,1.68 -1.43,2c0,0.31 0.79,0.6 1.75,0.64c1.32,0.05 1.16,0.35 -0.67,1.23c-1.88,0.9 -2.52,0.88 -2.84,-0.07c-0.22,-0.68 -1,-1.23 -1.72,-1.23c-0.72,0 -1.57,0.68 -1.88,1.5c-0.32,0.82 -1.04,1.5 -1.61,1.5c-0.57,0 -1.04,-0.79 -1.06,-1.75c-0.03,-1.6 -0.13,-1.59 -1.12,0.12c-0.82,1.42 -0.75,2.08 0.28,2.73c1.08,0.68 0.99,0.87 -0.38,0.88z" fill="black" fill-rule="evenodd"></path>
</svg>